<svg width="32" height="80" xmlns="http://www.w3.org/2000/svg"> <metadata id="metadata1312">image/svg+xml</metadata>   <title>Layer 1</title>  <rect opacity="0" id="svg_8" height="80" width="32" y="0" x="0" stroke-width="0" fill="none"/>  <path d="m16.526262,0.5l-0.026262,11.328786c0,0 7.258112,0 7.258112,7.23185c0,7.23185 -7.258112,7.23185 -7.258112,7.23185c0,0 7.258112,0 7.258112,7.23185c0,7.23185 -7.258112,7.23185 -7.258112,7.23185c0,0 7.258112,0 7.258112,7.23185c0,7.23185 -7.258112,7.23185 -7.258112,7.23185c0,0 7.258112,0 7.258112,7.23185c0,7.23185 -7.258112,7.23185 -7.258112,7.23185l0.026262,9.9438" id="svg_2" stroke-width="2" fill-rule="evenodd" fill-opacity="0.75" fill="none" stroke="#000000"/> </svg>