<svg width="86" height="105" xmlns="http://www.w3.org/2000/svg">   <title>Layer 1</title>  <rect stroke="#231F20" id="svg_1" height="96.75292" width="70" stroke-miterlimit="10" fill="#FFFFFF" y="0.172" x="15.54551"/>  <line stroke-width="2" id="svg_2" y2="0.5" x2="0.5" y1="0.5" x1="15.58" stroke-miterlimit="10" stroke="#231F20" fill="none"/>  <line stroke-width="2" id="svg_3" y2="16.5" x2="0.5" y1="16.5" x1="16" stroke-miterlimit="10" stroke="#231F20" fill="none"/>  <line stroke-width="2" id="svg_4" y2="32.5" x2="0.5" y1="32.5" x1="15.581" stroke-miterlimit="10" stroke="#231F20" fill="none"/>  <line stroke-width="2" id="svg_5" y2="48.5" x2="0.5" y1="48.5" x1="15.581" stroke-miterlimit="10" stroke="#231F20" fill="none"/>  <line stroke-width="2" id="svg_6" y2="64.5" x2="0.5" y1="64.5" x1="15.581" stroke-miterlimit="10" stroke="#231F20" fill="none"/>  <line stroke-width="2" id="svg_7" y2="80.5" x2="0.5" y1="80.5" x1="15.581" stroke-miterlimit="10" stroke="#231F20" fill="none"/>  <line stroke-width="2" id="svg_8" y2="96.5" x2="0.33" y1="96.5" x1="15.581" stroke-miterlimit="10" stroke="#231F20" fill="none"/>  <line stroke-width="2" id="svg_9" y2="104.828" x2="50.202" y1="96.578" x1="50.202" stroke-miterlimit="10" stroke="#231F20" fill="none"/>  <polygon id="svg_10" points="80.5,43.556 76,48 71.5,43.556 71.5,12.445 76,8 80.5,12.445 " fill="#f2f2f2"/>  <polygon id="svg_11" points="80.5,83.557 76,88 71.5,83.557 71.5,52.445 76,48 80.5,52.445 " fill="#f2f2f2"/>  <polygon id="svg_12" points="28.5,43.556 23.999,48 19.5,43.556 19.5,12.445 23.999,8 28.5,12.445 " fill="#f2f2f2"/>  <polygon id="svg_13" points="28.5,83.557 23.999,88 19.5,83.557 19.5,52.445 23.999,48 28.5,52.445 " fill="#f2f2f2"/>  <polygon id="svg_14" points="68.682,43.5 73.037,48.001 68.682,52.5 31.32,52.5 26.963,48.001 31.32,43.5 " fill="#f2f2f2"/>  <polygon id="svg_15" points="69.557,2.5 74,7.001 69.557,11.5 30.445,11.5 26,7.001 30.445,2.5 " fill="#f2f2f2"/>  <polygon id="svg_16" points="69.057,84.5 73.5,89 69.057,93.5 30.945,93.5 26.5,89 30.945,84.5 " fill="#f2f2f2"/>  <rect id="svg_17" height="105" width="86" y="0" x="0" stroke-opacity="null" stroke-width="0" stroke="#231F20" fill="none"/> </svg>