<svg width="111.99999999999999" height="80.00000000000001" xmlns="http://www.w3.org/2000/svg"> <!-- Created with Method Draw - http://github.com/duopixel/Method-Draw/ --> <title>Layer 1</title> <g>  <title>Layer 1</title>  <path fill="#ffff00" stroke="black" stroke-width="0" stroke-opacity="null" d="m49.55812,17.50598l42.38133,10.15512l-13.25682,34.33996l-41.78611,-29.28815l6.13368,-10.93867z" id="svg_0"/>  <rect fill="none" stroke="black" stroke-width="0" stroke-opacity="null" fill-opacity="null" x="0" y="0" width="112" height="80" id="svg_3" opacity="0"/>  <path d="m79.74872,79.89328l0.11555,-19.87957l-6.74208,-3.31326l13.25305,-6.62652l-13.25305,-6.62653l13.25305,-6.62652l-13.25305,-6.62652l13.25305,-6.62653l-6.51097,-3.31326l0,-19.87957" stroke-width="2" stroke-linejoin="bevel" fill="none" id="svg_1" stroke="black"/>  <ellipse fill="none" stroke-opacity="null" fill-opacity="null" cx="79.74872" cy="40" id="svg_2" rx="24.46837" ry="24.8282" stroke="black"/>  <path fill="none" stroke="black" stroke-width="2" stroke-opacity="null" fill-opacity="null" opacity="0.5" d="m47.54178,13.80478" id="svg_6"/>  <path id="svg_4" d="m53.36372,21.35775" opacity="0.5" fill-opacity="null" stroke-opacity="null" stroke-width="0" stroke="black" fill="#ffff00"/>  <path id="svg_5" d="m52.10835,21.35775" opacity="0.5" fill-opacity="null" stroke-opacity="null" stroke-width="0" stroke="black" fill="#ffff00"/>  <path id="svg_9" d="m38.92697,35.4179l10.53463,-19.09808l-8.91313,-4.26826l-9.79189,1.25537l-19.20717,-11.1728l-5.39809,6.27685l19.70932,12.30263l4.14272,10.29404l8.92361,4.41025z" fill-opacity="null" stroke-opacity="null" stroke-width="2" stroke="black" fill="#cccccc"/>  <line stroke-linecap="null" stroke-linejoin="null" id="svg_10" y2="14.70429" x2="45.07828" y1="32.65608" x1="34.90978" fill-opacity="null" stroke-opacity="null" stroke-width="2" stroke="black" fill="none"/>  <line stroke="black" stroke-linecap="null" stroke-linejoin="null" id="svg_12" y2="8.80404" x2="5.65964" y1="0.64414" x1="10.80666" fill-opacity="null" stroke-opacity="null" stroke-width="2" fill="none"/>  <line stroke-linecap="null" stroke-linejoin="null" id="svg_13" y2="8.80404" x2="8.04485" y1="2.77827" x1="12.18757" fill-opacity="null" stroke-opacity="null" stroke-width="2" stroke="black" fill="none"/> </g></svg>