<svg width="95.99999999999999" height="95.99999999999999" xmlns="http://www.w3.org/2000/svg"> <!-- Created with Method Draw - http://github.com/duopixel/Method-Draw/ --> <g>  <title>Layer 1</title>  <rect fill="#ffffff" stroke-width="2" stroke-opacity="null" x="11.31229" width="68.68771" height="96" id="svg_24" stroke="#000000" y="0.15489"/>  <path fill="#000000" stroke-width="0" stroke-opacity="null" d="m71.19517,44.97501l-1.50253,0.89581l-7.51981,-12.77637l1.12797,-0.38329l7.89436,12.26385l0.00001,0z" id="svg_4" stroke="#000000"/>  <path stroke="#000000" id="svg_3" d="m68.68,49.47014l-6.20127,11.02972l1.55032,0.85313l5.32922,-10.54221l-0.67827,-1.34063l0,-0.00001z" stroke-opacity="null" stroke-width="0" fill="#000000"/>  <path fill="#fff" stroke="#000" stroke-width="1.5" opacity="0.96" d="m45.7159,9.54905" id="svg_1"/>  <metadata id="svg_9">image/svg+xml</metadata>  <path stroke="#000000" d="m14.97971,16.92945l0.4855,-0.42761c0,0 22.65772,0 22.65772,7.99733c0,7.99735 -22.65772,7.99735 -22.65772,7.99735c-1.96751,0 22.65772,0 22.65772,7.99735c0,7.99733 -22.65772,7.99733 -22.65772,7.99733c-1.96753,0 22.65772,-0.1882 22.65772,7.99735c0,8.18553 -22.65772,7.99733 -22.65772,7.99733c-3.60712,-0.1882 22.65772,0 22.65772,7.99735c0,7.99733 -22.65772,7.99733 -22.65772,7.99733l0.08197,-0.4459" id="svg_7" stroke-width="2" fill-rule="evenodd" fill-opacity="0.75" fill="none"/>  <line fill="none" stroke-width="2" stroke-opacity="null" fill-opacity="0.75" x1="43.11856" y1="12.0857" x2="43.11856" y2="86.39463" id="svg_12" stroke-linejoin="null" stroke-linecap="null" stroke="#000000"/>  <path fill="#fff" stroke="#000" stroke-width="1.5" opacity="0.96" d="m64.81399,9.54905" id="svg_18"/>  <line fill="none" stroke="#000000" stroke-width="2" stroke-opacity="null" fill-opacity="0.75" x1="16.5" y1="16.5" x2="0" y2="16.5" id="svg_25" stroke-linejoin="null" stroke-linecap="null"/>  <line fill="none" stroke="#000000" stroke-width="2" stroke-opacity="null" fill-opacity="0.75" x1="16.5" y1="80.5" x2="0" y2="80.5" id="svg_27" stroke-linejoin="null" stroke-linecap="null"/>  <line fill="none" stroke-width="2" stroke-opacity="null" fill-opacity="0.75" x1="60.03382" y1="16.5" x2="96" y2="16.5" id="svg_28" stroke-linejoin="null" stroke-linecap="null" stroke="#000000"/>  <line fill="none" stroke-width="2" stroke-opacity="null" fill-opacity="0.75" x1="60" y1="80.5" x2="96" y2="80.5" id="svg_29" stroke-linejoin="null" stroke-linecap="null" stroke="#000000"/>  <line fill="none" stroke="#000000" stroke-width="2" stroke-opacity="null" fill-opacity="0.75" x1="61.02142" y1="16.30101" x2="61.02142" y2="29.49605" id="svg_30" stroke-linejoin="null" stroke-linecap="null"/>  <line fill="none" stroke="#000000" stroke-width="2" stroke-opacity="null" fill-opacity="0.75" x1="61.02142" y1="66.65052" x2="61.02142" y2="79.84556" id="svg_31" stroke-linejoin="null" stroke-linecap="null"/>  <ellipse fill="#000000" stroke="#000000" stroke-width="2" stroke-opacity="null" cx="61.10823" cy="64.30666" id="svg_33" rx="3.38557" ry="2.86471"/>  <ellipse fill="#000000" stroke="#000000" stroke-width="2" stroke-opacity="null" cx="60.93461" cy="29.23563" id="svg_32" rx="3.38557" ry="2.86471"/>  <line fill="none" stroke="#000000" stroke-width="2" stroke-opacity="null" fill-opacity="0.75" x1="75" y1="48" x2="96" y2="48" id="svg_34" stroke-linejoin="null" stroke-linecap="null"/>  <ellipse fill="#000000" stroke="#000000" stroke-width="2" stroke-opacity="null" cx="72.91432" cy="48.33371" id="svg_35" rx="3.38557" ry="2.86471"/> </g></svg>