<svg width="32" height="80" xmlns="http://www.w3.org/2000/svg"> <title>Layer 1</title> <g>  <title>Layer 1</title>  <path stroke="#000000" stroke-width="2" fill="none" stroke-opacity="null" d="m3.13385,54.77365l12.86616,-26.06746l12.86616,26.06746l-25.73233,0l0.00001,0z" id="svg_4"/>  <rect x="0" y="0" fill="none" stroke="#000000" stroke-width="0" stroke-opacity="null" fill-opacity="null" width="32" height="80" id="svg_6"/>  <path fill="none" stroke-width="0" stroke-miterlimit="10" d="m8.74049,53.91651l0,-8.48418c0,-2.90807 2.4572,-5.26586 5.48787,-5.26586l3.3531,0c3.03068,0 5.48787,2.35779 5.48787,5.26586l0,8.48418" id="svg_1" stroke="#000000"/>  <line stroke="#000000" fill="none" stroke-width="2" stroke-miterlimit="10" x1="16" y1="54.75" x2="16" y2="80" id="svg_3"/>  <line y1="0" stroke="#000000" fill="none" stroke-width="2" stroke-opacity="null" fill-opacity="null" x1="16" x2="16" y2="27.86948" id="svg_5" stroke-linejoin="null" stroke-linecap="null"/>  <line stroke="#000000" fill="none" stroke-width="2" stroke-opacity="null" fill-opacity="null" x1="1.96642" y1="27.8923" x2="30.16139" y2="27.8923" id="svg_7" stroke-linejoin="null" stroke-linecap="null"/>  <path id="svg_9" d="m4.43737,32.62485l-2.50009,2.06221l-0.74999,-3.24998l3.25009,1.18777l-0.00001,0z" stroke-opacity="null" stroke-width="0" stroke="#000000" fill="#000000"/>  <line stroke-linecap="null" stroke-linejoin="null" id="svg_10" y2="36.62482" x2="5.81236" y1="32.99984" x1="2.68739" stroke-opacity="null" stroke="#000000" fill="none"/>  <path stroke="#000000" id="svg_11" d="m3.40603,36.71847l-2.50009,2.06221l-0.75,-3.24998l3.25009,1.18777z" stroke-opacity="null" stroke-width="0" fill="#000000"/>  <line stroke-linecap="null" stroke-linejoin="null" id="svg_12" y2="40.59344" x2="4.65603" y1="36.96847" x1="1.53105" stroke-opacity="null" stroke="#000000" fill="none"/> </g></svg>